<svg xmlns="http://www.w3.org/2000/svg" version="1.1" xmlns:xlink="http://www.w3.org/1999/xlink" width="200" height="200"><svg xmlns="http://www.w3.org/2000/svg" version="1.1" xmlns:xlink="http://www.w3.org/1999/xlink" viewBox="0 0 200 200"><rect width="200" height="200" fill="url('#gradient')"></rect><defs><linearGradient id="SvgjsLinearGradient1001" gradientTransform="rotate(134 0.5 0.5)"><stop offset="0%" stop-color="#1d425b"></stop><stop offset="100%" stop-color="#778ca7"></stop></linearGradient></defs><g><g fill="#1d425b" transform="matrix(3.513467147023503,0,0,3.513467147023503,-1.3660687110828462,121.2213805346408)" stroke="#f1eee5" stroke-width="0.65"><path d="M6.10 1.79L5.49 3.52Q1.97 2.53 1.97-1.03L1.97-1.03L1.97-2.96Q1.97-4.93 0.39-4.93L0.39-4.93L0.39-7.15Q1.97-7.15 1.97-9.13L1.97-9.13L1.97-11.18Q2.00-12.94 2.89-14.02Q3.77-15.11 5.49-15.60L5.49-15.60L6.10-13.88Q4.87-13.41 4.82-11.25L4.82-11.25L4.82-9.13Q4.82-6.94 3.02-6.04L3.02-6.04Q4.82-5.15 4.82-2.95L4.82-2.95L4.82-0.84Q4.87 1.32 6.10 1.79L6.10 1.79ZM19.45-14.22L19.45 0L16.04 0L16.04-5.94L11.00-5.94L11.00 0L7.57 0L7.57-14.22L11.00-14.22L11.00-8.57L16.04-8.57L16.04-14.22L19.45-14.22ZM29.72-4.81L33.13-4.81Q33.06-3.33 32.32-2.19Q31.59-1.05 30.27-0.43Q28.95 0.20 27.25 0.20L27.25 0.20Q24.44 0.20 22.83-1.63Q21.22-3.46 21.22-6.79L21.22-6.79L21.22-7.49Q21.22-9.58 21.95-11.15Q22.68-12.71 24.04-13.57Q25.41-14.42 27.21-14.42L27.21-14.42Q29.79-14.42 31.37-13.06Q32.94-11.70 33.15-9.31L33.15-9.31L29.74-9.31Q29.70-10.61 29.08-11.17Q28.47-11.74 27.21-11.74L27.21-11.74Q25.93-11.74 25.33-10.78Q24.74-9.82 24.71-7.72L24.71-7.72L24.71-6.72Q24.71-4.44 25.28-3.47Q25.85-2.49 27.25-2.49L27.25-2.49Q28.43-2.49 29.05-3.05Q29.68-3.60 29.72-4.81L29.72-4.81ZM34.75-14.22L39.25-14.22L42.42-4.33L45.59-14.22L50.10-14.22L50.10 0L46.66 0L46.66-3.32L46.99-10.12L43.55 0L41.29 0L37.84-10.13L38.17-3.32L38.17 0L34.75 0L34.75-14.22ZM52.22 3.52L51.60 1.79Q52.83 1.32 52.88-0.84L52.88-0.84L52.88-2.96Q52.88-5.16 54.70-6.04L54.70-6.04Q52.88-6.93 52.88-9.13L52.88-9.13L52.88-11.25Q52.83-13.41 51.60-13.88L51.60-13.88L52.22-15.60Q53.96-15.11 54.84-14.00Q55.72-12.89 55.73-11.09L55.73-11.09L55.73-9.13Q55.73-7.15 57.31-7.15L57.31-7.15L57.31-4.93Q55.73-4.93 55.73-2.97L55.73-2.97L55.73-0.89Q55.66 2.55 52.22 3.52L52.22 3.52Z"></path></g></g></svg><style>@media (prefers-color-scheme: light) { :root { filter: none; } }
@media (prefers-color-scheme: dark) { :root { filter: none; } }
</style></svg>